<?xml version="1.0" standalone="no"?>
<!DOCTYPE svg PUBLIC "-//W3C//DTD SVG 20010904//EN"
 "http://www.w3.org/TR/2001/REC-SVG-20010904/DTD/svg10.dtd">
<svg version="1.0" xmlns="http://www.w3.org/2000/svg"
 width="270.000000pt" height="270.000000pt" viewBox="0 0 270.000000 270.000000"
 preserveAspectRatio="xMidYMid meet">
<metadata>
Created by potrace 1.11, written by Peter Selinger 2001-2013
</metadata>
<g transform="translate(0.000000,270.000000) scale(0.100000,-0.100000)"
fill="#000000" stroke="none">
<path d="M498 2695 c-4 -4 -24 -8 -45 -10 -46 -3 -54 -6 -118 -34 -27 -12 -53
-28 -57 -34 -4 -7 -8 -8 -8 -3 0 5 -11 -3 -25 -18 -13 -14 -27 -26 -30 -26
-10 0 -75 -69 -75 -79 0 -5 -3 -11 -7 -13 -13 -5 -51 -63 -67 -102 -8 -20 -19
-36 -24 -36 -5 0 -8 -13 -7 -30 1 -16 -4 -42 -12 -57 -8 -15 -12 -35 -10 -45
3 -10 1 -18 -4 -18 -17 0 -9 -103 15 -197 3 -13 8 -32 11 -44 2 -11 14 -37 27
-57 13 -20 22 -40 20 -44 -1 -5 3 -8 8 -8 6 0 10 -6 10 -14 0 -8 7 -16 15 -20
8 -3 15 -10 15 -16 0 -6 9 -20 19 -32 19 -19 19 -22 3 -46 -24 -37 -31 -323
-9 -366 9 -16 13 -35 10 -42 -3 -8 1 -14 8 -14 7 0 9 -3 6 -7 -4 -3 0 -17 9
-31 8 -13 13 -30 10 -38 -3 -8 -1 -14 4 -14 6 0 10 -6 10 -14 0 -7 7 -19 15
-26 8 -7 15 -21 15 -31 0 -11 4 -19 8 -19 4 0 14 -16 21 -35 7 -19 17 -35 22
-35 6 0 8 -4 4 -9 -3 -5 2 -16 10 -24 8 -9 15 -20 15 -26 0 -6 5 -11 10 -11 6
0 10 -6 10 -12 0 -7 11 -26 25 -42 14 -17 28 -40 31 -53 4 -13 9 -23 13 -23 4
0 22 -23 40 -50 18 -28 37 -50 42 -50 6 0 8 -4 5 -9 -3 -5 1 -14 9 -21 8 -7
15 -19 15 -26 0 -8 3 -14 8 -14 4 0 12 -10 18 -23 27 -56 50 -93 68 -109 10
-10 16 -18 12 -18 -4 0 -2 -6 4 -12 31 -37 80 -108 75 -108 -4 0 0 -7 7 -14
14 -16 51 -59 118 -139 22 -27 40 -45 40 -42 0 4 15 -8 34 -27 19 -18 34 -35
34 -38 -1 -21 6 -35 32 -60 28 -27 43 -35 54 -27 2 1 13 -7 25 -17 12 -11 21
-16 21 -11 0 4 6 2 14 -4 8 -7 54 -15 103 -18 72 -4 95 -2 128 12 22 10 42 19
45 20 3 1 28 12 55 25 28 13 61 24 75 25 36 3 53 8 68 23 7 6 20 12 28 12 8 0
29 8 47 17 18 9 34 18 37 18 19 5 60 30 60 37 0 5 5 6 12 2 6 -4 16 0 22 8 6
8 27 23 46 33 19 10 52 31 73 47 20 16 37 27 37 23 0 -3 23 15 51 42 99 94
258 254 259 258 0 3 0 10 0 16 0 5 4 8 9 5 5 -3 14 7 21 23 6 16 18 32 27 35
8 3 11 10 8 16 -3 5 -1 10 4 10 6 0 11 6 11 14 0 8 10 22 22 30 12 9 19 16 14
16 -5 0 -1 9 9 20 10 11 14 20 9 20 -5 0 -2 6 6 13 21 16 55 76 64 110 3 15
11 27 16 27 6 0 10 10 10 23 0 12 7 32 15 43 8 12 11 24 8 28 -3 3 -1 6 5 6 7
0 11 3 10 7 -3 15 14 63 22 63 5 0 6 8 3 18 -2 10 1 31 8 47 7 17 13 35 14 40
1 6 3 12 5 15 1 3 3 98 4 212 2 186 4 209 21 228 10 11 15 20 11 20 -4 0 2 10
13 22 11 11 18 24 16 28 -3 5 2 11 10 14 8 3 14 9 13 13 -1 4 7 26 17 48 22
49 26 61 31 105 6 58 14 101 18 108 2 4 0 27 -5 52 -5 25 -11 65 -13 89 -3 24
-8 46 -13 50 -4 3 -15 15 -23 25 -13 18 -13 19 0 11 11 -6 10 -3 -2 12 -10 11
-18 25 -18 31 0 7 -7 12 -16 12 -8 0 -12 5 -9 10 3 6 1 10 -4 10 -6 0 -11 7
-11 17 0 9 -3 13 -6 10 -4 -4 -24 11 -44 33 -20 22 -40 37 -43 33 -4 -3 -9 2
-13 11 -3 9 -11 16 -17 16 -6 0 -18 7 -28 16 -9 8 -23 17 -31 18 -7 2 -26 9
-43 16 -33 14 -53 21 -72 22 -7 1 -13 4 -13 8 0 3 -17 7 -37 8 -147 8 -213 8
-213 3 0 -4 -8 -7 -17 -8 -53 -4 -81 -11 -110 -26 -18 -10 -33 -15 -33 -12 0
3 -12 -6 -27 -20 -16 -14 -36 -28 -46 -31 -9 -3 -15 -9 -12 -13 2 -5 -4 -16
-15 -26 -11 -10 -20 -24 -20 -30 0 -7 -7 -18 -15 -25 -10 -9 -12 -17 -6 -23 6
-6 3 -17 -10 -30 -11 -12 -17 -27 -15 -33 3 -7 -4 -14 -15 -17 -10 -3 -19 -2
-19 2 0 8 -70 32 -105 37 -32 4 -50 9 -55 14 -8 9 -131 27 -135 21 -4 -8 -86
-5 -107 4 -9 4 -34 4 -55 0 -21 -3 -59 -6 -85 -6 -27 -1 -48 -5 -48 -10 0 -5
-11 -7 -24 -5 -13 2 -27 2 -30 -2 -9 -9 -37 -12 -32 -3 3 4 -10 37 -29 73 -18
37 -31 68 -29 70 2 2 -10 19 -26 36 -16 18 -27 32 -24 32 3 0 -4 10 -16 22
-11 12 -20 25 -20 30 0 4 -5 8 -10 8 -6 0 -23 11 -38 25 -15 14 -32 25 -38 25
-6 0 -17 7 -24 15 -7 8 -16 13 -20 10 -5 -3 -11 -1 -15 5 -4 6 -11 8 -16 5 -5
-4 -9 -2 -9 4 0 5 -8 10 -17 9 -10 0 -47 3 -83 7 -36 4 -68 4 -72 0z"/>
</g>
</svg>
