<?xml version="1.0" encoding="utf-8" standalone="no"?>
<!DOCTYPE svg PUBLIC "-//W3C//DTD SVG 1.1//EN"
  "http://www.w3.org/Graphics/SVG/1.1/DTD/svg11.dtd">
<!-- Created with matplotlib (https://matplotlib.org/) -->
<svg height="345.6pt" version="1.1" viewBox="0 0 460.8 345.6" width="460.8pt" xmlns="http://www.w3.org/2000/svg" xmlns:xlink="http://www.w3.org/1999/xlink">
 <defs>
  <style type="text/css">
*{stroke-linecap:butt;stroke-linejoin:round;}
  </style>
 </defs>
 <g id="figure_1">
  <g id="patch_1">
   <path d="M 0 345.6 
L 460.8 345.6 
L 460.8 0 
L 0 0 
z
" style="fill:#ffffff;"/>
  </g>
  <g id="axes_1">
   <g id="patch_2">
    <path d="M 109.338398 280.309205 
L 364.207602 280.309205 
L 364.207602 25.44 
L 109.338398 25.44 
z
" style="fill:#ffffff;"/>
   </g>
   <g id="matplotlib.axis_1">
    <g id="xtick_1">
     <g id="line2d_1">
      <path clip-path="url(#pf59aaf072a)" d="M 109.338398 280.309205 
L 109.338398 25.44 
" style="fill:none;stroke:#b0b0b0;stroke-linecap:square;stroke-width:0.8;"/>
     </g>
     <g id="line2d_2">
      <defs>
       <path d="M 0 0 
L 0 3.5 
" id="m3e9d5fe569" style="stroke:#000000;stroke-width:0.8;"/>
      </defs>
      <g>
       <use style="stroke:#000000;stroke-width:0.8;" x="109.338398" xlink:href="#m3e9d5fe569" y="280.309205"/>
      </g>
     </g>
     <g id="text_1">
      <!-- 1 ns -->
      <defs>
       <path d="M 12.40625 8.296875 
L 28.515625 8.296875 
L 28.515625 63.921875 
L 10.984375 60.40625 
L 10.984375 69.390625 
L 28.421875 72.90625 
L 38.28125 72.90625 
L 38.28125 8.296875 
L 54.390625 8.296875 
L 54.390625 0 
L 12.40625 0 
z
" id="DejaVuSans-49"/>
       <path id="DejaVuSans-32"/>
       <path d="M 54.890625 33.015625 
L 54.890625 0 
L 45.90625 0 
L 45.90625 32.71875 
Q 45.90625 40.484375 42.875 44.328125 
Q 39.84375 48.1875 33.796875 48.1875 
Q 26.515625 48.1875 22.3125 43.546875 
Q 18.109375 38.921875 18.109375 30.90625 
L 18.109375 0 
L 9.078125 0 
L 9.078125 54.6875 
L 18.109375 54.6875 
L 18.109375 46.1875 
Q 21.34375 51.125 25.703125 53.5625 
Q 30.078125 56 35.796875 56 
Q 45.21875 56 50.046875 50.171875 
Q 54.890625 44.34375 54.890625 33.015625 
z
" id="DejaVuSans-110"/>
       <path d="M 44.28125 53.078125 
L 44.28125 44.578125 
Q 40.484375 46.53125 36.375 47.5 
Q 32.28125 48.484375 27.875 48.484375 
Q 21.1875 48.484375 17.84375 46.4375 
Q 14.5 44.390625 14.5 40.28125 
Q 14.5 37.15625 16.890625 35.375 
Q 19.28125 33.59375 26.515625 31.984375 
L 29.59375 31.296875 
Q 39.15625 29.25 43.1875 25.515625 
Q 47.21875 21.78125 47.21875 15.09375 
Q 47.21875 7.46875 41.1875 3.015625 
Q 35.15625 -1.421875 24.609375 -1.421875 
Q 20.21875 -1.421875 15.453125 -0.5625 
Q 10.6875 0.296875 5.421875 2 
L 5.421875 11.28125 
Q 10.40625 8.6875 15.234375 7.390625 
Q 20.0625 6.109375 24.8125 6.109375 
Q 31.15625 6.109375 34.5625 8.28125 
Q 37.984375 10.453125 37.984375 14.40625 
Q 37.984375 18.0625 35.515625 20.015625 
Q 33.0625 21.96875 24.703125 23.78125 
L 21.578125 24.515625 
Q 13.234375 26.265625 9.515625 29.90625 
Q 5.8125 33.546875 5.8125 39.890625 
Q 5.8125 47.609375 11.28125 51.796875 
Q 16.75 56 26.8125 56 
Q 31.78125 56 36.171875 55.265625 
Q 40.578125 54.546875 44.28125 53.078125 
z
" id="DejaVuSans-115"/>
      </defs>
      <g transform="translate(99.80019 307.593226)rotate(-45)scale(0.1 -0.1)">
       <use xlink:href="#DejaVuSans-49"/>
       <use x="63.623047" xlink:href="#DejaVuSans-32"/>
       <use x="95.410156" xlink:href="#DejaVuSans-110"/>
       <use x="158.789062" xlink:href="#DejaVuSans-115"/>
      </g>
     </g>
    </g>
    <g id="xtick_2">
     <g id="line2d_3">
      <path clip-path="url(#pf59aaf072a)" d="M 141.197048 280.309205 
L 141.197048 25.44 
" style="fill:none;stroke:#b0b0b0;stroke-linecap:square;stroke-width:0.8;"/>
     </g>
     <g id="line2d_4">
      <g>
       <use style="stroke:#000000;stroke-width:0.8;" x="141.197048" xlink:href="#m3e9d5fe569" y="280.309205"/>
      </g>
     </g>
     <g id="text_2">
      <!-- 10 ns -->
      <defs>
       <path d="M 31.78125 66.40625 
Q 24.171875 66.40625 20.328125 58.90625 
Q 16.5 51.421875 16.5 36.375 
Q 16.5 21.390625 20.328125 13.890625 
Q 24.171875 6.390625 31.78125 6.390625 
Q 39.453125 6.390625 43.28125 13.890625 
Q 47.125 21.390625 47.125 36.375 
Q 47.125 51.421875 43.28125 58.90625 
Q 39.453125 66.40625 31.78125 66.40625 
z
M 31.78125 74.21875 
Q 44.046875 74.21875 50.515625 64.515625 
Q 56.984375 54.828125 56.984375 36.375 
Q 56.984375 17.96875 50.515625 8.265625 
Q 44.046875 -1.421875 31.78125 -1.421875 
Q 19.53125 -1.421875 13.0625 8.265625 
Q 6.59375 17.96875 6.59375 36.375 
Q 6.59375 54.828125 13.0625 64.515625 
Q 19.53125 74.21875 31.78125 74.21875 
z
" id="DejaVuSans-48"/>
      </defs>
      <g transform="translate(127.159874 312.092192)rotate(-45)scale(0.1 -0.1)">
       <use xlink:href="#DejaVuSans-49"/>
       <use x="63.623047" xlink:href="#DejaVuSans-48"/>
       <use x="127.246094" xlink:href="#DejaVuSans-32"/>
       <use x="159.033203" xlink:href="#DejaVuSans-110"/>
       <use x="222.412109" xlink:href="#DejaVuSans-115"/>
      </g>
     </g>
    </g>
    <g id="xtick_3">
     <g id="line2d_5">
      <path clip-path="url(#pf59aaf072a)" d="M 173.055699 280.309205 
L 173.055699 25.44 
" style="fill:none;stroke:#b0b0b0;stroke-linecap:square;stroke-width:0.8;"/>
     </g>
     <g id="line2d_6">
      <g>
       <use style="stroke:#000000;stroke-width:0.8;" x="173.055699" xlink:href="#m3e9d5fe569" y="280.309205"/>
      </g>
     </g>
     <g id="text_3">
      <!-- 100 ns -->
      <g transform="translate(154.519557 316.591159)rotate(-45)scale(0.1 -0.1)">
       <use xlink:href="#DejaVuSans-49"/>
       <use x="63.623047" xlink:href="#DejaVuSans-48"/>
       <use x="127.246094" xlink:href="#DejaVuSans-48"/>
       <use x="190.869141" xlink:href="#DejaVuSans-32"/>
       <use x="222.65625" xlink:href="#DejaVuSans-110"/>
       <use x="286.035156" xlink:href="#DejaVuSans-115"/>
      </g>
     </g>
    </g>
    <g id="xtick_4">
     <g id="line2d_7">
      <path clip-path="url(#pf59aaf072a)" d="M 204.914349 280.309205 
L 204.914349 25.44 
" style="fill:none;stroke:#b0b0b0;stroke-linecap:square;stroke-width:0.8;"/>
     </g>
     <g id="line2d_8">
      <g>
       <use style="stroke:#000000;stroke-width:0.8;" x="204.914349" xlink:href="#m3e9d5fe569" y="280.309205"/>
      </g>
     </g>
     <g id="text_4">
      <!-- 1 μs -->
      <defs>
       <path d="M 8.5 -20.796875 
L 8.5 54.6875 
L 17.484375 54.6875 
L 17.484375 20.703125 
Q 17.484375 13.625 20.84375 10 
Q 24.21875 6.390625 30.8125 6.390625 
Q 38.03125 6.390625 41.671875 10.484375 
Q 45.3125 14.59375 45.3125 22.796875 
L 45.3125 54.6875 
L 54.296875 54.6875 
L 54.296875 12.59375 
Q 54.296875 9.671875 55.140625 8.28125 
Q 56 6.890625 57.8125 6.890625 
Q 58.25 6.890625 59.03125 7.15625 
Q 59.8125 7.421875 61.1875 8.015625 
L 61.1875 0.78125 
Q 59.1875 -0.34375 57.390625 -0.875 
Q 55.609375 -1.421875 53.90625 -1.421875 
Q 50.53125 -1.421875 48.53125 0.484375 
Q 46.53125 2.390625 45.796875 6.296875 
Q 43.359375 2.4375 39.8125 0.5 
Q 36.28125 -1.421875 31.5 -1.421875 
Q 26.515625 -1.421875 23.015625 0.484375 
Q 19.53125 2.390625 17.484375 6.203125 
L 17.484375 -20.796875 
z
" id="DejaVuSans-956"/>
      </defs>
      <g transform="translate(195.358464 307.610903)rotate(-45)scale(0.1 -0.1)">
       <use xlink:href="#DejaVuSans-49"/>
       <use x="63.623047" xlink:href="#DejaVuSans-32"/>
       <use x="95.410156" xlink:href="#DejaVuSans-956"/>
       <use x="159.033203" xlink:href="#DejaVuSans-115"/>
      </g>
     </g>
    </g>
    <g id="xtick_5">
     <g id="line2d_9">
      <path clip-path="url(#pf59aaf072a)" d="M 236.773 280.309205 
L 236.773 25.44 
" style="fill:none;stroke:#b0b0b0;stroke-linecap:square;stroke-width:0.8;"/>
     </g>
     <g id="line2d_10">
      <g>
       <use style="stroke:#000000;stroke-width:0.8;" x="236.773" xlink:href="#m3e9d5fe569" y="280.309205"/>
      </g>
     </g>
     <g id="text_5">
      <!-- 10 μs -->
      <g transform="translate(222.718148 312.10987)rotate(-45)scale(0.1 -0.1)">
       <use xlink:href="#DejaVuSans-49"/>
       <use x="63.623047" xlink:href="#DejaVuSans-48"/>
       <use x="127.246094" xlink:href="#DejaVuSans-32"/>
       <use x="159.033203" xlink:href="#DejaVuSans-956"/>
       <use x="222.65625" xlink:href="#DejaVuSans-115"/>
      </g>
     </g>
    </g>
    <g id="xtick_6">
     <g id="line2d_11">
      <path clip-path="url(#pf59aaf072a)" d="M 268.631651 280.309205 
L 268.631651 25.44 
" style="fill:none;stroke:#b0b0b0;stroke-linecap:square;stroke-width:0.8;"/>
     </g>
     <g id="line2d_12">
      <g>
       <use style="stroke:#000000;stroke-width:0.8;" x="268.631651" xlink:href="#m3e9d5fe569" y="280.309205"/>
      </g>
     </g>
     <g id="text_6">
      <!-- 100 μs -->
      <g transform="translate(250.077832 316.608837)rotate(-45)scale(0.1 -0.1)">
       <use xlink:href="#DejaVuSans-49"/>
       <use x="63.623047" xlink:href="#DejaVuSans-48"/>
       <use x="127.246094" xlink:href="#DejaVuSans-48"/>
       <use x="190.869141" xlink:href="#DejaVuSans-32"/>
       <use x="222.65625" xlink:href="#DejaVuSans-956"/>
       <use x="286.279297" xlink:href="#DejaVuSans-115"/>
      </g>
     </g>
    </g>
    <g id="xtick_7">
     <g id="line2d_13">
      <path clip-path="url(#pf59aaf072a)" d="M 300.490301 280.309205 
L 300.490301 25.44 
" style="fill:none;stroke:#b0b0b0;stroke-linecap:square;stroke-width:0.8;"/>
     </g>
     <g id="line2d_14">
      <g>
       <use style="stroke:#000000;stroke-width:0.8;" x="300.490301" xlink:href="#m3e9d5fe569" y="280.309205"/>
      </g>
     </g>
     <g id="text_7">
      <!-- 1 ms -->
      <defs>
       <path d="M 52 44.1875 
Q 55.375 50.25 60.0625 53.125 
Q 64.75 56 71.09375 56 
Q 79.640625 56 84.28125 50.015625 
Q 88.921875 44.046875 88.921875 33.015625 
L 88.921875 0 
L 79.890625 0 
L 79.890625 32.71875 
Q 79.890625 40.578125 77.09375 44.375 
Q 74.3125 48.1875 68.609375 48.1875 
Q 61.625 48.1875 57.5625 43.546875 
Q 53.515625 38.921875 53.515625 30.90625 
L 53.515625 0 
L 44.484375 0 
L 44.484375 32.71875 
Q 44.484375 40.625 41.703125 44.40625 
Q 38.921875 48.1875 33.109375 48.1875 
Q 26.21875 48.1875 22.15625 43.53125 
Q 18.109375 38.875 18.109375 30.90625 
L 18.109375 0 
L 9.078125 0 
L 9.078125 54.6875 
L 18.109375 54.6875 
L 18.109375 46.1875 
Q 21.1875 51.21875 25.484375 53.609375 
Q 29.78125 56 35.6875 56 
Q 41.65625 56 45.828125 52.96875 
Q 50 49.953125 52 44.1875 
z
" id="DejaVuSans-109"/>
      </defs>
      <g transform="translate(288.545721 309.999598)rotate(-45)scale(0.1 -0.1)">
       <use xlink:href="#DejaVuSans-49"/>
       <use x="63.623047" xlink:href="#DejaVuSans-32"/>
       <use x="95.410156" xlink:href="#DejaVuSans-109"/>
       <use x="192.822266" xlink:href="#DejaVuSans-115"/>
      </g>
     </g>
    </g>
    <g id="xtick_8">
     <g id="line2d_15">
      <path clip-path="url(#pf59aaf072a)" d="M 332.348952 280.309205 
L 332.348952 25.44 
" style="fill:none;stroke:#b0b0b0;stroke-linecap:square;stroke-width:0.8;"/>
     </g>
     <g id="line2d_16">
      <g>
       <use style="stroke:#000000;stroke-width:0.8;" x="332.348952" xlink:href="#m3e9d5fe569" y="280.309205"/>
      </g>
     </g>
     <g id="text_8">
      <!-- 10 ms -->
      <g transform="translate(315.905404 314.498565)rotate(-45)scale(0.1 -0.1)">
       <use xlink:href="#DejaVuSans-49"/>
       <use x="63.623047" xlink:href="#DejaVuSans-48"/>
       <use x="127.246094" xlink:href="#DejaVuSans-32"/>
       <use x="159.033203" xlink:href="#DejaVuSans-109"/>
       <use x="256.445312" xlink:href="#DejaVuSans-115"/>
      </g>
     </g>
    </g>
    <g id="xtick_9">
     <g id="line2d_17">
      <path clip-path="url(#pf59aaf072a)" d="M 364.207602 280.309205 
L 364.207602 25.44 
" style="fill:none;stroke:#b0b0b0;stroke-linecap:square;stroke-width:0.8;"/>
     </g>
     <g id="line2d_18">
      <g>
       <use style="stroke:#000000;stroke-width:0.8;" x="364.207602" xlink:href="#m3e9d5fe569" y="280.309205"/>
      </g>
     </g>
     <g id="text_9">
      <!-- 100 ms -->
      <g transform="translate(343.265088 318.997532)rotate(-45)scale(0.1 -0.1)">
       <use xlink:href="#DejaVuSans-49"/>
       <use x="63.623047" xlink:href="#DejaVuSans-48"/>
       <use x="127.246094" xlink:href="#DejaVuSans-48"/>
       <use x="190.869141" xlink:href="#DejaVuSans-32"/>
       <use x="222.65625" xlink:href="#DejaVuSans-109"/>
       <use x="320.068359" xlink:href="#DejaVuSans-115"/>
      </g>
     </g>
    </g>
    <g id="text_10">
     <!-- requested sleep time -->
     <defs>
      <path d="M 41.109375 46.296875 
Q 39.59375 47.171875 37.8125 47.578125 
Q 36.03125 48 33.890625 48 
Q 26.265625 48 22.1875 43.046875 
Q 18.109375 38.09375 18.109375 28.8125 
L 18.109375 0 
L 9.078125 0 
L 9.078125 54.6875 
L 18.109375 54.6875 
L 18.109375 46.1875 
Q 20.953125 51.171875 25.484375 53.578125 
Q 30.03125 56 36.53125 56 
Q 37.453125 56 38.578125 55.875 
Q 39.703125 55.765625 41.0625 55.515625 
z
" id="DejaVuSans-114"/>
      <path d="M 56.203125 29.59375 
L 56.203125 25.203125 
L 14.890625 25.203125 
Q 15.484375 15.921875 20.484375 11.0625 
Q 25.484375 6.203125 34.421875 6.203125 
Q 39.59375 6.203125 44.453125 7.46875 
Q 49.3125 8.734375 54.109375 11.28125 
L 54.109375 2.78125 
Q 49.265625 0.734375 44.1875 -0.34375 
Q 39.109375 -1.421875 33.890625 -1.421875 
Q 20.796875 -1.421875 13.15625 6.1875 
Q 5.515625 13.8125 5.515625 26.8125 
Q 5.515625 40.234375 12.765625 48.109375 
Q 20.015625 56 32.328125 56 
Q 43.359375 56 49.78125 48.890625 
Q 56.203125 41.796875 56.203125 29.59375 
z
M 47.21875 32.234375 
Q 47.125 39.59375 43.09375 43.984375 
Q 39.0625 48.390625 32.421875 48.390625 
Q 24.90625 48.390625 20.390625 44.140625 
Q 15.875 39.890625 15.1875 32.171875 
z
" id="DejaVuSans-101"/>
      <path d="M 14.796875 27.296875 
Q 14.796875 17.390625 18.875 11.75 
Q 22.953125 6.109375 30.078125 6.109375 
Q 37.203125 6.109375 41.296875 11.75 
Q 45.40625 17.390625 45.40625 27.296875 
Q 45.40625 37.203125 41.296875 42.84375 
Q 37.203125 48.484375 30.078125 48.484375 
Q 22.953125 48.484375 18.875 42.84375 
Q 14.796875 37.203125 14.796875 27.296875 
z
M 45.40625 8.203125 
Q 42.578125 3.328125 38.25 0.953125 
Q 33.9375 -1.421875 27.875 -1.421875 
Q 17.96875 -1.421875 11.734375 6.484375 
Q 5.515625 14.40625 5.515625 27.296875 
Q 5.515625 40.1875 11.734375 48.09375 
Q 17.96875 56 27.875 56 
Q 33.9375 56 38.25 53.625 
Q 42.578125 51.265625 45.40625 46.390625 
L 45.40625 54.6875 
L 54.390625 54.6875 
L 54.390625 -20.796875 
L 45.40625 -20.796875 
z
" id="DejaVuSans-113"/>
      <path d="M 8.5 21.578125 
L 8.5 54.6875 
L 17.484375 54.6875 
L 17.484375 21.921875 
Q 17.484375 14.15625 20.5 10.265625 
Q 23.53125 6.390625 29.59375 6.390625 
Q 36.859375 6.390625 41.078125 11.03125 
Q 45.3125 15.671875 45.3125 23.6875 
L 45.3125 54.6875 
L 54.296875 54.6875 
L 54.296875 0 
L 45.3125 0 
L 45.3125 8.40625 
Q 42.046875 3.421875 37.71875 1 
Q 33.40625 -1.421875 27.6875 -1.421875 
Q 18.265625 -1.421875 13.375 4.4375 
Q 8.5 10.296875 8.5 21.578125 
z
M 31.109375 56 
z
" id="DejaVuSans-117"/>
      <path d="M 18.3125 70.21875 
L 18.3125 54.6875 
L 36.8125 54.6875 
L 36.8125 47.703125 
L 18.3125 47.703125 
L 18.3125 18.015625 
Q 18.3125 11.328125 20.140625 9.421875 
Q 21.96875 7.515625 27.59375 7.515625 
L 36.8125 7.515625 
L 36.8125 0 
L 27.59375 0 
Q 17.1875 0 13.234375 3.875 
Q 9.28125 7.765625 9.28125 18.015625 
L 9.28125 47.703125 
L 2.6875 47.703125 
L 2.6875 54.6875 
L 9.28125 54.6875 
L 9.28125 70.21875 
z
" id="DejaVuSans-116"/>
      <path d="M 45.40625 46.390625 
L 45.40625 75.984375 
L 54.390625 75.984375 
L 54.390625 0 
L 45.40625 0 
L 45.40625 8.203125 
Q 42.578125 3.328125 38.25 0.953125 
Q 33.9375 -1.421875 27.875 -1.421875 
Q 17.96875 -1.421875 11.734375 6.484375 
Q 5.515625 14.40625 5.515625 27.296875 
Q 5.515625 40.1875 11.734375 48.09375 
Q 17.96875 56 27.875 56 
Q 33.9375 56 38.25 53.625 
Q 42.578125 51.265625 45.40625 46.390625 
z
M 14.796875 27.296875 
Q 14.796875 17.390625 18.875 11.75 
Q 22.953125 6.109375 30.078125 6.109375 
Q 37.203125 6.109375 41.296875 11.75 
Q 45.40625 17.390625 45.40625 27.296875 
Q 45.40625 37.203125 41.296875 42.84375 
Q 37.203125 48.484375 30.078125 48.484375 
Q 22.953125 48.484375 18.875 42.84375 
Q 14.796875 37.203125 14.796875 27.296875 
z
" id="DejaVuSans-100"/>
      <path d="M 9.421875 75.984375 
L 18.40625 75.984375 
L 18.40625 0 
L 9.421875 0 
z
" id="DejaVuSans-108"/>
      <path d="M 18.109375 8.203125 
L 18.109375 -20.796875 
L 9.078125 -20.796875 
L 9.078125 54.6875 
L 18.109375 54.6875 
L 18.109375 46.390625 
Q 20.953125 51.265625 25.265625 53.625 
Q 29.59375 56 35.59375 56 
Q 45.5625 56 51.78125 48.09375 
Q 58.015625 40.1875 58.015625 27.296875 
Q 58.015625 14.40625 51.78125 6.484375 
Q 45.5625 -1.421875 35.59375 -1.421875 
Q 29.59375 -1.421875 25.265625 0.953125 
Q 20.953125 3.328125 18.109375 8.203125 
z
M 48.6875 27.296875 
Q 48.6875 37.203125 44.609375 42.84375 
Q 40.53125 48.484375 33.40625 48.484375 
Q 26.265625 48.484375 22.1875 42.84375 
Q 18.109375 37.203125 18.109375 27.296875 
Q 18.109375 17.390625 22.1875 11.75 
Q 26.265625 6.109375 33.40625 6.109375 
Q 40.53125 6.109375 44.609375 11.75 
Q 48.6875 17.390625 48.6875 27.296875 
z
" id="DejaVuSans-112"/>
      <path d="M 9.421875 54.6875 
L 18.40625 54.6875 
L 18.40625 0 
L 9.421875 0 
z
M 9.421875 75.984375 
L 18.40625 75.984375 
L 18.40625 64.59375 
L 9.421875 64.59375 
z
" id="DejaVuSans-105"/>
     </defs>
     <g transform="translate(183.723 332.066531)scale(0.1 -0.1)">
      <use xlink:href="#DejaVuSans-114"/>
      <use x="38.863281" xlink:href="#DejaVuSans-101"/>
      <use x="100.386719" xlink:href="#DejaVuSans-113"/>
      <use x="163.863281" xlink:href="#DejaVuSans-117"/>
      <use x="227.242188" xlink:href="#DejaVuSans-101"/>
      <use x="288.765625" xlink:href="#DejaVuSans-115"/>
      <use x="340.865234" xlink:href="#DejaVuSans-116"/>
      <use x="380.074219" xlink:href="#DejaVuSans-101"/>
      <use x="441.597656" xlink:href="#DejaVuSans-100"/>
      <use x="505.074219" xlink:href="#DejaVuSans-32"/>
      <use x="536.861328" xlink:href="#DejaVuSans-115"/>
      <use x="588.960938" xlink:href="#DejaVuSans-108"/>
      <use x="616.744141" xlink:href="#DejaVuSans-101"/>
      <use x="678.267578" xlink:href="#DejaVuSans-101"/>
      <use x="739.791016" xlink:href="#DejaVuSans-112"/>
      <use x="803.267578" xlink:href="#DejaVuSans-32"/>
      <use x="835.054688" xlink:href="#DejaVuSans-116"/>
      <use x="874.263672" xlink:href="#DejaVuSans-105"/>
      <use x="902.046875" xlink:href="#DejaVuSans-109"/>
      <use x="999.458984" xlink:href="#DejaVuSans-101"/>
     </g>
    </g>
   </g>
   <g id="matplotlib.axis_2">
    <g id="ytick_1">
     <g id="line2d_19">
      <path clip-path="url(#pf59aaf072a)" d="M 109.338398 280.309205 
L 364.207602 280.309205 
" style="fill:none;stroke:#b0b0b0;stroke-linecap:square;stroke-width:0.8;"/>
     </g>
     <g id="line2d_20">
      <defs>
       <path d="M 0 0 
L -3.5 0 
" id="mf958ad14d2" style="stroke:#000000;stroke-width:0.8;"/>
      </defs>
      <g>
       <use style="stroke:#000000;stroke-width:0.8;" x="109.338398" xlink:href="#mf958ad14d2" y="280.309205"/>
      </g>
     </g>
     <g id="text_11">
      <!-- 1 ns -->
      <g transform="translate(81.250898 284.108423)scale(0.1 -0.1)">
       <use xlink:href="#DejaVuSans-49"/>
       <use x="63.623047" xlink:href="#DejaVuSans-32"/>
       <use x="95.410156" xlink:href="#DejaVuSans-110"/>
       <use x="158.789062" xlink:href="#DejaVuSans-115"/>
      </g>
     </g>
    </g>
    <g id="ytick_2">
     <g id="line2d_21">
      <path clip-path="url(#pf59aaf072a)" d="M 109.338398 248.450554 
L 364.207602 248.450554 
" style="fill:none;stroke:#b0b0b0;stroke-linecap:square;stroke-width:0.8;"/>
     </g>
     <g id="line2d_22">
      <g>
       <use style="stroke:#000000;stroke-width:0.8;" x="109.338398" xlink:href="#mf958ad14d2" y="248.450554"/>
      </g>
     </g>
     <g id="text_12">
      <!-- 10 ns -->
      <g transform="translate(74.888398 252.249773)scale(0.1 -0.1)">
       <use xlink:href="#DejaVuSans-49"/>
       <use x="63.623047" xlink:href="#DejaVuSans-48"/>
       <use x="127.246094" xlink:href="#DejaVuSans-32"/>
       <use x="159.033203" xlink:href="#DejaVuSans-110"/>
       <use x="222.412109" xlink:href="#DejaVuSans-115"/>
      </g>
     </g>
    </g>
    <g id="ytick_3">
     <g id="line2d_23">
      <path clip-path="url(#pf59aaf072a)" d="M 109.338398 216.591903 
L 364.207602 216.591903 
" style="fill:none;stroke:#b0b0b0;stroke-linecap:square;stroke-width:0.8;"/>
     </g>
     <g id="line2d_24">
      <g>
       <use style="stroke:#000000;stroke-width:0.8;" x="109.338398" xlink:href="#mf958ad14d2" y="216.591903"/>
      </g>
     </g>
     <g id="text_13">
      <!-- 100 ns -->
      <g transform="translate(68.525898 220.391122)scale(0.1 -0.1)">
       <use xlink:href="#DejaVuSans-49"/>
       <use x="63.623047" xlink:href="#DejaVuSans-48"/>
       <use x="127.246094" xlink:href="#DejaVuSans-48"/>
       <use x="190.869141" xlink:href="#DejaVuSans-32"/>
       <use x="222.65625" xlink:href="#DejaVuSans-110"/>
       <use x="286.035156" xlink:href="#DejaVuSans-115"/>
      </g>
     </g>
    </g>
    <g id="ytick_4">
     <g id="line2d_25">
      <path clip-path="url(#pf59aaf072a)" d="M 109.338398 184.733253 
L 364.207602 184.733253 
" style="fill:none;stroke:#b0b0b0;stroke-linecap:square;stroke-width:0.8;"/>
     </g>
     <g id="line2d_26">
      <g>
       <use style="stroke:#000000;stroke-width:0.8;" x="109.338398" xlink:href="#mf958ad14d2" y="184.733253"/>
      </g>
     </g>
     <g id="text_14">
      <!-- 1 μs -->
      <g transform="translate(81.225898 188.532472)scale(0.1 -0.1)">
       <use xlink:href="#DejaVuSans-49"/>
       <use x="63.623047" xlink:href="#DejaVuSans-32"/>
       <use x="95.410156" xlink:href="#DejaVuSans-956"/>
       <use x="159.033203" xlink:href="#DejaVuSans-115"/>
      </g>
     </g>
    </g>
    <g id="ytick_5">
     <g id="line2d_27">
      <path clip-path="url(#pf59aaf072a)" d="M 109.338398 152.874602 
L 364.207602 152.874602 
" style="fill:none;stroke:#b0b0b0;stroke-linecap:square;stroke-width:0.8;"/>
     </g>
     <g id="line2d_28">
      <g>
       <use style="stroke:#000000;stroke-width:0.8;" x="109.338398" xlink:href="#mf958ad14d2" y="152.874602"/>
      </g>
     </g>
     <g id="text_15">
      <!-- 10 μs -->
      <g transform="translate(74.863398 156.673821)scale(0.1 -0.1)">
       <use xlink:href="#DejaVuSans-49"/>
       <use x="63.623047" xlink:href="#DejaVuSans-48"/>
       <use x="127.246094" xlink:href="#DejaVuSans-32"/>
       <use x="159.033203" xlink:href="#DejaVuSans-956"/>
       <use x="222.65625" xlink:href="#DejaVuSans-115"/>
      </g>
     </g>
    </g>
    <g id="ytick_6">
     <g id="line2d_29">
      <path clip-path="url(#pf59aaf072a)" d="M 109.338398 121.015952 
L 364.207602 121.015952 
" style="fill:none;stroke:#b0b0b0;stroke-linecap:square;stroke-width:0.8;"/>
     </g>
     <g id="line2d_30">
      <g>
       <use style="stroke:#000000;stroke-width:0.8;" x="109.338398" xlink:href="#mf958ad14d2" y="121.015952"/>
      </g>
     </g>
     <g id="text_16">
      <!-- 100 μs -->
      <g transform="translate(68.500898 124.81517)scale(0.1 -0.1)">
       <use xlink:href="#DejaVuSans-49"/>
       <use x="63.623047" xlink:href="#DejaVuSans-48"/>
       <use x="127.246094" xlink:href="#DejaVuSans-48"/>
       <use x="190.869141" xlink:href="#DejaVuSans-32"/>
       <use x="222.65625" xlink:href="#DejaVuSans-956"/>
       <use x="286.279297" xlink:href="#DejaVuSans-115"/>
      </g>
     </g>
    </g>
    <g id="ytick_7">
     <g id="line2d_31">
      <path clip-path="url(#pf59aaf072a)" d="M 109.338398 89.157301 
L 364.207602 89.157301 
" style="fill:none;stroke:#b0b0b0;stroke-linecap:square;stroke-width:0.8;"/>
     </g>
     <g id="line2d_32">
      <g>
       <use style="stroke:#000000;stroke-width:0.8;" x="109.338398" xlink:href="#mf958ad14d2" y="89.157301"/>
      </g>
     </g>
     <g id="text_17">
      <!-- 1 ms -->
      <g transform="translate(77.847773 92.95652)scale(0.1 -0.1)">
       <use xlink:href="#DejaVuSans-49"/>
       <use x="63.623047" xlink:href="#DejaVuSans-32"/>
       <use x="95.410156" xlink:href="#DejaVuSans-109"/>
       <use x="192.822266" xlink:href="#DejaVuSans-115"/>
      </g>
     </g>
    </g>
    <g id="ytick_8">
     <g id="line2d_33">
      <path clip-path="url(#pf59aaf072a)" d="M 109.338398 57.298651 
L 364.207602 57.298651 
" style="fill:none;stroke:#b0b0b0;stroke-linecap:square;stroke-width:0.8;"/>
     </g>
     <g id="line2d_34">
      <g>
       <use style="stroke:#000000;stroke-width:0.8;" x="109.338398" xlink:href="#mf958ad14d2" y="57.298651"/>
      </g>
     </g>
     <g id="text_18">
      <!-- 10 ms -->
      <g transform="translate(71.485273 61.097869)scale(0.1 -0.1)">
       <use xlink:href="#DejaVuSans-49"/>
       <use x="63.623047" xlink:href="#DejaVuSans-48"/>
       <use x="127.246094" xlink:href="#DejaVuSans-32"/>
       <use x="159.033203" xlink:href="#DejaVuSans-109"/>
       <use x="256.445312" xlink:href="#DejaVuSans-115"/>
      </g>
     </g>
    </g>
    <g id="ytick_9">
     <g id="line2d_35">
      <path clip-path="url(#pf59aaf072a)" d="M 109.338398 25.44 
L 364.207602 25.44 
" style="fill:none;stroke:#b0b0b0;stroke-linecap:square;stroke-width:0.8;"/>
     </g>
     <g id="line2d_36">
      <g>
       <use style="stroke:#000000;stroke-width:0.8;" x="109.338398" xlink:href="#mf958ad14d2" y="25.44"/>
      </g>
     </g>
     <g id="text_19">
      <!-- 100 ms -->
      <g transform="translate(65.122773 29.239219)scale(0.1 -0.1)">
       <use xlink:href="#DejaVuSans-49"/>
       <use x="63.623047" xlink:href="#DejaVuSans-48"/>
       <use x="127.246094" xlink:href="#DejaVuSans-48"/>
       <use x="190.869141" xlink:href="#DejaVuSans-32"/>
       <use x="222.65625" xlink:href="#DejaVuSans-109"/>
       <use x="320.068359" xlink:href="#DejaVuSans-115"/>
      </g>
     </g>
    </g>
    <g id="text_20">
     <!-- actual sleep time -->
     <defs>
      <path d="M 34.28125 27.484375 
Q 23.390625 27.484375 19.1875 25 
Q 14.984375 22.515625 14.984375 16.5 
Q 14.984375 11.71875 18.140625 8.90625 
Q 21.296875 6.109375 26.703125 6.109375 
Q 34.1875 6.109375 38.703125 11.40625 
Q 43.21875 16.703125 43.21875 25.484375 
L 43.21875 27.484375 
z
M 52.203125 31.203125 
L 52.203125 0 
L 43.21875 0 
L 43.21875 8.296875 
Q 40.140625 3.328125 35.546875 0.953125 
Q 30.953125 -1.421875 24.3125 -1.421875 
Q 15.921875 -1.421875 10.953125 3.296875 
Q 6 8.015625 6 15.921875 
Q 6 25.140625 12.171875 29.828125 
Q 18.359375 34.515625 30.609375 34.515625 
L 43.21875 34.515625 
L 43.21875 35.40625 
Q 43.21875 41.609375 39.140625 45 
Q 35.0625 48.390625 27.6875 48.390625 
Q 23 48.390625 18.546875 47.265625 
Q 14.109375 46.140625 10.015625 43.890625 
L 10.015625 52.203125 
Q 14.9375 54.109375 19.578125 55.046875 
Q 24.21875 56 28.609375 56 
Q 40.484375 56 46.34375 49.84375 
Q 52.203125 43.703125 52.203125 31.203125 
z
" id="DejaVuSans-97"/>
      <path d="M 48.78125 52.59375 
L 48.78125 44.1875 
Q 44.96875 46.296875 41.140625 47.34375 
Q 37.3125 48.390625 33.40625 48.390625 
Q 24.65625 48.390625 19.8125 42.84375 
Q 14.984375 37.3125 14.984375 27.296875 
Q 14.984375 17.28125 19.8125 11.734375 
Q 24.65625 6.203125 33.40625 6.203125 
Q 37.3125 6.203125 41.140625 7.25 
Q 44.96875 8.296875 48.78125 10.40625 
L 48.78125 2.09375 
Q 45.015625 0.34375 40.984375 -0.53125 
Q 36.96875 -1.421875 32.421875 -1.421875 
Q 20.0625 -1.421875 12.78125 6.34375 
Q 5.515625 14.109375 5.515625 27.296875 
Q 5.515625 40.671875 12.859375 48.328125 
Q 20.21875 56 33.015625 56 
Q 37.15625 56 41.109375 55.140625 
Q 45.0625 54.296875 48.78125 52.59375 
z
" id="DejaVuSans-99"/>
     </defs>
     <g transform="translate(59.043085 196.065227)rotate(-90)scale(0.1 -0.1)">
      <use xlink:href="#DejaVuSans-97"/>
      <use x="61.279297" xlink:href="#DejaVuSans-99"/>
      <use x="116.259766" xlink:href="#DejaVuSans-116"/>
      <use x="155.46875" xlink:href="#DejaVuSans-117"/>
      <use x="218.847656" xlink:href="#DejaVuSans-97"/>
      <use x="280.126953" xlink:href="#DejaVuSans-108"/>
      <use x="307.910156" xlink:href="#DejaVuSans-32"/>
      <use x="339.697266" xlink:href="#DejaVuSans-115"/>
      <use x="391.796875" xlink:href="#DejaVuSans-108"/>
      <use x="419.580078" xlink:href="#DejaVuSans-101"/>
      <use x="481.103516" xlink:href="#DejaVuSans-101"/>
      <use x="542.626953" xlink:href="#DejaVuSans-112"/>
      <use x="606.103516" xlink:href="#DejaVuSans-32"/>
      <use x="637.890625" xlink:href="#DejaVuSans-116"/>
      <use x="677.099609" xlink:href="#DejaVuSans-105"/>
      <use x="704.882812" xlink:href="#DejaVuSans-109"/>
      <use x="802.294922" xlink:href="#DejaVuSans-101"/>
     </g>
    </g>
   </g>
   <g id="line2d_37">
    <path clip-path="url(#pf59aaf072a)" d="M 109.338398 105.390068 
L 141.197048 112.828616 
L 173.055699 115.647474 
L 204.914349 80.515319 
L 236.773 80.567502 
L 268.631651 80.422627 
L 300.490301 80.575588 
L 332.348952 56.573525 
L 364.207602 25.372782 
" style="fill:none;stroke:#1f77b4;stroke-linecap:square;stroke-width:1.5;"/>
    <defs>
     <path d="M 0 3 
C 0.795609 3 1.55874 2.683901 2.12132 2.12132 
C 2.683901 1.55874 3 0.795609 3 0 
C 3 -0.795609 2.683901 -1.55874 2.12132 -2.12132 
C 1.55874 -2.683901 0.795609 -3 0 -3 
C -0.795609 -3 -1.55874 -2.683901 -2.12132 -2.12132 
C -2.683901 -1.55874 -3 -0.795609 -3 0 
C -3 0.795609 -2.683901 1.55874 -2.12132 2.12132 
C -1.55874 2.683901 -0.795609 3 0 3 
z
" id="m206b52775c" style="stroke:#1f77b4;"/>
    </defs>
    <g clip-path="url(#pf59aaf072a)">
     <use style="fill:#1f77b4;stroke:#1f77b4;" x="109.338398" xlink:href="#m206b52775c" y="105.390068"/>
     <use style="fill:#1f77b4;stroke:#1f77b4;" x="141.197048" xlink:href="#m206b52775c" y="112.828616"/>
     <use style="fill:#1f77b4;stroke:#1f77b4;" x="173.055699" xlink:href="#m206b52775c" y="115.647474"/>
     <use style="fill:#1f77b4;stroke:#1f77b4;" x="204.914349" xlink:href="#m206b52775c" y="80.515319"/>
     <use style="fill:#1f77b4;stroke:#1f77b4;" x="236.773" xlink:href="#m206b52775c" y="80.567502"/>
     <use style="fill:#1f77b4;stroke:#1f77b4;" x="268.631651" xlink:href="#m206b52775c" y="80.422627"/>
     <use style="fill:#1f77b4;stroke:#1f77b4;" x="300.490301" xlink:href="#m206b52775c" y="80.575588"/>
     <use style="fill:#1f77b4;stroke:#1f77b4;" x="332.348952" xlink:href="#m206b52775c" y="56.573525"/>
     <use style="fill:#1f77b4;stroke:#1f77b4;" x="364.207602" xlink:href="#m206b52775c" y="25.372782"/>
    </g>
   </g>
   <g id="line2d_38">
    <path clip-path="url(#pf59aaf072a)" d="M 109.338398 214.419594 
L 141.197048 212.135545 
L 173.055699 215.273188 
L 204.914349 182.549123 
L 236.773 152.747893 
L 268.631651 120.947908 
L 300.490301 89.13887 
L 332.348952 57.296853 
L 364.207602 25.439879 
" style="fill:none;stroke:#ff7f0e;stroke-linecap:square;stroke-width:1.5;"/>
    <defs>
     <path d="M 0 3 
C 0.795609 3 1.55874 2.683901 2.12132 2.12132 
C 2.683901 1.55874 3 0.795609 3 0 
C 3 -0.795609 2.683901 -1.55874 2.12132 -2.12132 
C 1.55874 -2.683901 0.795609 -3 0 -3 
C -0.795609 -3 -1.55874 -2.683901 -2.12132 -2.12132 
C -2.683901 -1.55874 -3 -0.795609 -3 0 
C -3 0.795609 -2.683901 1.55874 -2.12132 2.12132 
C -1.55874 2.683901 -0.795609 3 0 3 
z
" id="m36bf3676fe" style="stroke:#ff7f0e;"/>
    </defs>
    <g clip-path="url(#pf59aaf072a)">
     <use style="fill:#ff7f0e;stroke:#ff7f0e;" x="109.338398" xlink:href="#m36bf3676fe" y="214.419594"/>
     <use style="fill:#ff7f0e;stroke:#ff7f0e;" x="141.197048" xlink:href="#m36bf3676fe" y="212.135545"/>
     <use style="fill:#ff7f0e;stroke:#ff7f0e;" x="173.055699" xlink:href="#m36bf3676fe" y="215.273188"/>
     <use style="fill:#ff7f0e;stroke:#ff7f0e;" x="204.914349" xlink:href="#m36bf3676fe" y="182.549123"/>
     <use style="fill:#ff7f0e;stroke:#ff7f0e;" x="236.773" xlink:href="#m36bf3676fe" y="152.747893"/>
     <use style="fill:#ff7f0e;stroke:#ff7f0e;" x="268.631651" xlink:href="#m36bf3676fe" y="120.947908"/>
     <use style="fill:#ff7f0e;stroke:#ff7f0e;" x="300.490301" xlink:href="#m36bf3676fe" y="89.13887"/>
     <use style="fill:#ff7f0e;stroke:#ff7f0e;" x="332.348952" xlink:href="#m36bf3676fe" y="57.296853"/>
     <use style="fill:#ff7f0e;stroke:#ff7f0e;" x="364.207602" xlink:href="#m36bf3676fe" y="25.439879"/>
    </g>
   </g>
   <g id="line2d_39">
    <path clip-path="url(#pf59aaf072a)" d="M 109.338398 211.261399 
L 141.197048 202.052697 
L 173.055699 196.218727 
L 204.914349 182.443189 
L 236.773 152.249704 
L 268.631651 120.816361 
L 300.490301 89.13858 
L 332.348952 57.294474 
L 364.207602 25.436954 
" style="fill:none;stroke:#2ca02c;stroke-linecap:square;stroke-width:1.5;"/>
    <defs>
     <path d="M 0 3 
C 0.795609 3 1.55874 2.683901 2.12132 2.12132 
C 2.683901 1.55874 3 0.795609 3 0 
C 3 -0.795609 2.683901 -1.55874 2.12132 -2.12132 
C 1.55874 -2.683901 0.795609 -3 0 -3 
C -0.795609 -3 -1.55874 -2.683901 -2.12132 -2.12132 
C -2.683901 -1.55874 -3 -0.795609 -3 0 
C -3 0.795609 -2.683901 1.55874 -2.12132 2.12132 
C -1.55874 2.683901 -0.795609 3 0 3 
z
" id="mc0c7ffe7a3" style="stroke:#2ca02c;"/>
    </defs>
    <g clip-path="url(#pf59aaf072a)">
     <use style="fill:#2ca02c;stroke:#2ca02c;" x="109.338398" xlink:href="#mc0c7ffe7a3" y="211.261399"/>
     <use style="fill:#2ca02c;stroke:#2ca02c;" x="141.197048" xlink:href="#mc0c7ffe7a3" y="202.052697"/>
     <use style="fill:#2ca02c;stroke:#2ca02c;" x="173.055699" xlink:href="#mc0c7ffe7a3" y="196.218727"/>
     <use style="fill:#2ca02c;stroke:#2ca02c;" x="204.914349" xlink:href="#mc0c7ffe7a3" y="182.443189"/>
     <use style="fill:#2ca02c;stroke:#2ca02c;" x="236.773" xlink:href="#mc0c7ffe7a3" y="152.249704"/>
     <use style="fill:#2ca02c;stroke:#2ca02c;" x="268.631651" xlink:href="#mc0c7ffe7a3" y="120.816361"/>
     <use style="fill:#2ca02c;stroke:#2ca02c;" x="300.490301" xlink:href="#mc0c7ffe7a3" y="89.13858"/>
     <use style="fill:#2ca02c;stroke:#2ca02c;" x="332.348952" xlink:href="#mc0c7ffe7a3" y="57.294474"/>
     <use style="fill:#2ca02c;stroke:#2ca02c;" x="364.207602" xlink:href="#mc0c7ffe7a3" y="25.436954"/>
    </g>
   </g>
   <g id="line2d_40">
    <path clip-path="url(#pf59aaf072a)" d="M 109.338398 203.694448 
L 141.197048 213.504481 
L 173.055699 203.858838 
L 204.914349 178.492154 
L 236.773 150.91801 
L 268.631651 120.925759 
L 300.490301 89.008043 
L 332.348952 57.225011 
L 364.207602 25.429756 
" style="fill:none;stroke:#d62728;stroke-linecap:square;stroke-width:1.5;"/>
    <defs>
     <path d="M 0 3 
C 0.795609 3 1.55874 2.683901 2.12132 2.12132 
C 2.683901 1.55874 3 0.795609 3 0 
C 3 -0.795609 2.683901 -1.55874 2.12132 -2.12132 
C 1.55874 -2.683901 0.795609 -3 0 -3 
C -0.795609 -3 -1.55874 -2.683901 -2.12132 -2.12132 
C -2.683901 -1.55874 -3 -0.795609 -3 0 
C -3 0.795609 -2.683901 1.55874 -2.12132 2.12132 
C -1.55874 2.683901 -0.795609 3 0 3 
z
" id="m5f8d747a05" style="stroke:#d62728;"/>
    </defs>
    <g clip-path="url(#pf59aaf072a)">
     <use style="fill:#d62728;stroke:#d62728;" x="109.338398" xlink:href="#m5f8d747a05" y="203.694448"/>
     <use style="fill:#d62728;stroke:#d62728;" x="141.197048" xlink:href="#m5f8d747a05" y="213.504481"/>
     <use style="fill:#d62728;stroke:#d62728;" x="173.055699" xlink:href="#m5f8d747a05" y="203.858838"/>
     <use style="fill:#d62728;stroke:#d62728;" x="204.914349" xlink:href="#m5f8d747a05" y="178.492154"/>
     <use style="fill:#d62728;stroke:#d62728;" x="236.773" xlink:href="#m5f8d747a05" y="150.91801"/>
     <use style="fill:#d62728;stroke:#d62728;" x="268.631651" xlink:href="#m5f8d747a05" y="120.925759"/>
     <use style="fill:#d62728;stroke:#d62728;" x="300.490301" xlink:href="#m5f8d747a05" y="89.008043"/>
     <use style="fill:#d62728;stroke:#d62728;" x="332.348952" xlink:href="#m5f8d747a05" y="57.225011"/>
     <use style="fill:#d62728;stroke:#d62728;" x="364.207602" xlink:href="#m5f8d747a05" y="25.429756"/>
    </g>
   </g>
   <g id="patch_3">
    <path d="M 109.338398 280.309205 
L 109.338398 25.44 
" style="fill:none;stroke:#000000;stroke-linecap:square;stroke-linejoin:miter;stroke-width:0.8;"/>
   </g>
   <g id="patch_4">
    <path d="M 364.207602 280.309205 
L 364.207602 25.44 
" style="fill:none;stroke:#000000;stroke-linecap:square;stroke-linejoin:miter;stroke-width:0.8;"/>
   </g>
   <g id="patch_5">
    <path d="M 109.338398 280.309205 
L 364.207602 280.309205 
" style="fill:none;stroke:#000000;stroke-linecap:square;stroke-linejoin:miter;stroke-width:0.8;"/>
   </g>
   <g id="patch_6">
    <path d="M 109.338398 25.44 
L 364.207602 25.44 
" style="fill:none;stroke:#000000;stroke-linecap:square;stroke-linejoin:miter;stroke-width:0.8;"/>
   </g>
   <g id="text_21">
    <!-- Sleep accuracy comparison -->
    <defs>
     <path d="M 53.515625 70.515625 
L 53.515625 60.890625 
Q 47.90625 63.578125 42.921875 64.890625 
Q 37.9375 66.21875 33.296875 66.21875 
Q 25.25 66.21875 20.875 63.09375 
Q 16.5 59.96875 16.5 54.203125 
Q 16.5 49.359375 19.40625 46.890625 
Q 22.3125 44.4375 30.421875 42.921875 
L 36.375 41.703125 
Q 47.40625 39.59375 52.65625 34.296875 
Q 57.90625 29 57.90625 20.125 
Q 57.90625 9.515625 50.796875 4.046875 
Q 43.703125 -1.421875 29.984375 -1.421875 
Q 24.8125 -1.421875 18.96875 -0.25 
Q 13.140625 0.921875 6.890625 3.21875 
L 6.890625 13.375 
Q 12.890625 10.015625 18.65625 8.296875 
Q 24.421875 6.59375 29.984375 6.59375 
Q 38.421875 6.59375 43.015625 9.90625 
Q 47.609375 13.234375 47.609375 19.390625 
Q 47.609375 24.75 44.3125 27.78125 
Q 41.015625 30.8125 33.5 32.328125 
L 27.484375 33.5 
Q 16.453125 35.6875 11.515625 40.375 
Q 6.59375 45.0625 6.59375 53.421875 
Q 6.59375 63.09375 13.40625 68.65625 
Q 20.21875 74.21875 32.171875 74.21875 
Q 37.3125 74.21875 42.625 73.28125 
Q 47.953125 72.359375 53.515625 70.515625 
z
" id="DejaVuSans-83"/>
     <path d="M 32.171875 -5.078125 
Q 28.375 -14.84375 24.75 -17.8125 
Q 21.140625 -20.796875 15.09375 -20.796875 
L 7.90625 -20.796875 
L 7.90625 -13.28125 
L 13.1875 -13.28125 
Q 16.890625 -13.28125 18.9375 -11.515625 
Q 21 -9.765625 23.484375 -3.21875 
L 25.09375 0.875 
L 2.984375 54.6875 
L 12.5 54.6875 
L 29.59375 11.921875 
L 46.6875 54.6875 
L 56.203125 54.6875 
z
" id="DejaVuSans-121"/>
     <path d="M 30.609375 48.390625 
Q 23.390625 48.390625 19.1875 42.75 
Q 14.984375 37.109375 14.984375 27.296875 
Q 14.984375 17.484375 19.15625 11.84375 
Q 23.34375 6.203125 30.609375 6.203125 
Q 37.796875 6.203125 41.984375 11.859375 
Q 46.1875 17.53125 46.1875 27.296875 
Q 46.1875 37.015625 41.984375 42.703125 
Q 37.796875 48.390625 30.609375 48.390625 
z
M 30.609375 56 
Q 42.328125 56 49.015625 48.375 
Q 55.71875 40.765625 55.71875 27.296875 
Q 55.71875 13.875 49.015625 6.21875 
Q 42.328125 -1.421875 30.609375 -1.421875 
Q 18.84375 -1.421875 12.171875 6.21875 
Q 5.515625 13.875 5.515625 27.296875 
Q 5.515625 40.765625 12.171875 48.375 
Q 18.84375 56 30.609375 56 
z
" id="DejaVuSans-111"/>
    </defs>
    <g transform="translate(154.185812 19.44)scale(0.12 -0.12)">
     <use xlink:href="#DejaVuSans-83"/>
     <use x="63.476562" xlink:href="#DejaVuSans-108"/>
     <use x="91.259766" xlink:href="#DejaVuSans-101"/>
     <use x="152.783203" xlink:href="#DejaVuSans-101"/>
     <use x="214.306641" xlink:href="#DejaVuSans-112"/>
     <use x="277.783203" xlink:href="#DejaVuSans-32"/>
     <use x="309.570312" xlink:href="#DejaVuSans-97"/>
     <use x="370.849609" xlink:href="#DejaVuSans-99"/>
     <use x="425.830078" xlink:href="#DejaVuSans-99"/>
     <use x="480.810547" xlink:href="#DejaVuSans-117"/>
     <use x="544.189453" xlink:href="#DejaVuSans-114"/>
     <use x="585.302734" xlink:href="#DejaVuSans-97"/>
     <use x="646.582031" xlink:href="#DejaVuSans-99"/>
     <use x="701.5625" xlink:href="#DejaVuSans-121"/>
     <use x="760.742188" xlink:href="#DejaVuSans-32"/>
     <use x="792.529297" xlink:href="#DejaVuSans-99"/>
     <use x="847.509766" xlink:href="#DejaVuSans-111"/>
     <use x="908.691406" xlink:href="#DejaVuSans-109"/>
     <use x="1006.103516" xlink:href="#DejaVuSans-112"/>
     <use x="1069.580078" xlink:href="#DejaVuSans-97"/>
     <use x="1130.859375" xlink:href="#DejaVuSans-114"/>
     <use x="1171.972656" xlink:href="#DejaVuSans-105"/>
     <use x="1199.755859" xlink:href="#DejaVuSans-115"/>
     <use x="1251.855469" xlink:href="#DejaVuSans-111"/>
     <use x="1313.037109" xlink:href="#DejaVuSans-110"/>
    </g>
   </g>
   <g id="legend_1">
    <g id="patch_7">
     <path d="M 259.235727 275.309205 
L 357.207602 275.309205 
Q 359.207602 275.309205 359.207602 273.309205 
L 359.207602 215.596705 
Q 359.207602 213.596705 357.207602 213.596705 
L 259.235727 213.596705 
Q 257.235727 213.596705 257.235727 215.596705 
L 257.235727 273.309205 
Q 257.235727 275.309205 259.235727 275.309205 
z
" style="fill:#ffffff;opacity:0.8;stroke:#cccccc;stroke-linejoin:miter;"/>
    </g>
    <g id="line2d_41">
     <path d="M 261.235727 221.695142 
L 281.235727 221.695142 
" style="fill:none;stroke:#1f77b4;stroke-linecap:square;stroke-width:1.5;"/>
    </g>
    <g id="line2d_42">
     <g>
      <use style="fill:#1f77b4;stroke:#1f77b4;" x="271.235727" xlink:href="#m206b52775c" y="221.695142"/>
     </g>
    </g>
    <g id="text_22">
     <!-- system sleep -->
     <g transform="translate(289.235727 225.195142)scale(0.1 -0.1)">
      <use xlink:href="#DejaVuSans-115"/>
      <use x="52.099609" xlink:href="#DejaVuSans-121"/>
      <use x="111.279297" xlink:href="#DejaVuSans-115"/>
      <use x="163.378906" xlink:href="#DejaVuSans-116"/>
      <use x="202.587891" xlink:href="#DejaVuSans-101"/>
      <use x="264.111328" xlink:href="#DejaVuSans-109"/>
      <use x="361.523438" xlink:href="#DejaVuSans-32"/>
      <use x="393.310547" xlink:href="#DejaVuSans-115"/>
      <use x="445.410156" xlink:href="#DejaVuSans-108"/>
      <use x="473.193359" xlink:href="#DejaVuSans-101"/>
      <use x="534.716797" xlink:href="#DejaVuSans-101"/>
      <use x="596.240234" xlink:href="#DejaVuSans-112"/>
     </g>
    </g>
    <g id="line2d_43">
     <path d="M 261.235727 236.373267 
L 281.235727 236.373267 
" style="fill:none;stroke:#ff7f0e;stroke-linecap:square;stroke-width:1.5;"/>
    </g>
    <g id="line2d_44">
     <g>
      <use style="fill:#ff7f0e;stroke:#ff7f0e;" x="271.235727" xlink:href="#m36bf3676fe" y="236.373267"/>
     </g>
    </g>
    <g id="text_23">
     <!-- spin lock -->
     <defs>
      <path d="M 9.078125 75.984375 
L 18.109375 75.984375 
L 18.109375 31.109375 
L 44.921875 54.6875 
L 56.390625 54.6875 
L 27.390625 29.109375 
L 57.625 0 
L 45.90625 0 
L 18.109375 26.703125 
L 18.109375 0 
L 9.078125 0 
z
" id="DejaVuSans-107"/>
     </defs>
     <g transform="translate(289.235727 239.873267)scale(0.1 -0.1)">
      <use xlink:href="#DejaVuSans-115"/>
      <use x="52.099609" xlink:href="#DejaVuSans-112"/>
      <use x="115.576172" xlink:href="#DejaVuSans-105"/>
      <use x="143.359375" xlink:href="#DejaVuSans-110"/>
      <use x="206.738281" xlink:href="#DejaVuSans-32"/>
      <use x="238.525391" xlink:href="#DejaVuSans-108"/>
      <use x="266.308594" xlink:href="#DejaVuSans-111"/>
      <use x="327.490234" xlink:href="#DejaVuSans-99"/>
      <use x="382.470703" xlink:href="#DejaVuSans-107"/>
     </g>
    </g>
    <g id="line2d_45">
     <path d="M 261.235727 251.051392 
L 281.235727 251.051392 
" style="fill:none;stroke:#2ca02c;stroke-linecap:square;stroke-width:1.5;"/>
    </g>
    <g id="line2d_46">
     <g>
      <use style="fill:#2ca02c;stroke:#2ca02c;" x="271.235727" xlink:href="#mc0c7ffe7a3" y="251.051392"/>
     </g>
    </g>
    <g id="text_24">
     <!-- precise sleep -->
     <g transform="translate(289.235727 254.551392)scale(0.1 -0.1)">
      <use xlink:href="#DejaVuSans-112"/>
      <use x="63.476562" xlink:href="#DejaVuSans-114"/>
      <use x="102.339844" xlink:href="#DejaVuSans-101"/>
      <use x="163.863281" xlink:href="#DejaVuSans-99"/>
      <use x="218.84375" xlink:href="#DejaVuSans-105"/>
      <use x="246.626953" xlink:href="#DejaVuSans-115"/>
      <use x="298.726562" xlink:href="#DejaVuSans-101"/>
      <use x="360.25" xlink:href="#DejaVuSans-32"/>
      <use x="392.037109" xlink:href="#DejaVuSans-115"/>
      <use x="444.136719" xlink:href="#DejaVuSans-108"/>
      <use x="471.919922" xlink:href="#DejaVuSans-101"/>
      <use x="533.443359" xlink:href="#DejaVuSans-101"/>
      <use x="594.966797" xlink:href="#DejaVuSans-112"/>
     </g>
    </g>
    <g id="line2d_47">
     <path d="M 261.235727 265.729517 
L 281.235727 265.729517 
" style="fill:none;stroke:#d62728;stroke-linecap:square;stroke-width:1.5;"/>
    </g>
    <g id="line2d_48">
     <g>
      <use style="fill:#d62728;stroke:#d62728;" x="271.235727" xlink:href="#m5f8d747a05" y="265.729517"/>
     </g>
    </g>
    <g id="text_25">
     <!-- timer sleep -->
     <g transform="translate(289.235727 269.229517)scale(0.1 -0.1)">
      <use xlink:href="#DejaVuSans-116"/>
      <use x="39.208984" xlink:href="#DejaVuSans-105"/>
      <use x="66.992188" xlink:href="#DejaVuSans-109"/>
      <use x="164.404297" xlink:href="#DejaVuSans-101"/>
      <use x="225.927734" xlink:href="#DejaVuSans-114"/>
      <use x="267.041016" xlink:href="#DejaVuSans-32"/>
      <use x="298.828125" xlink:href="#DejaVuSans-115"/>
      <use x="350.927734" xlink:href="#DejaVuSans-108"/>
      <use x="378.710938" xlink:href="#DejaVuSans-101"/>
      <use x="440.234375" xlink:href="#DejaVuSans-101"/>
      <use x="501.757812" xlink:href="#DejaVuSans-112"/>
     </g>
    </g>
   </g>
  </g>
 </g>
 <defs>
  <clipPath id="pf59aaf072a">
   <rect height="254.869205" width="254.869205" x="109.338398" y="25.44"/>
  </clipPath>
 </defs>
</svg>
